<!--
SPDX-FileCopyrightText: 2026 Guido Wolf Reichert <gwr@bsl-support.de>
SPDX-License-Identifier: CC-BY-SA-4.0
-->
<svg
  xmlns="http://www.w3.org/2000/svg"
  viewBox="0 0 450 417"
  role="img"
  aria-labelledby="title desc"
>

  <title id="title">ReusePkgTemplates logo (dark)</title>
  <desc id="desc">
    A wireframe package box surrounded by four colored reuse arrows.
  </desc>

  <g transform="translate(-1310 -889)">
    <path
      d="M1334.5 993.5V952.375c0-22.713 18.41-41.125 41.12-41.125H1408V899.5l23.5 23.5-23.5 23.5v-11.75h-32.38c-9.73 0-17.62 7.891-17.62 17.625V993.5Z"
      fill="#7ED957"
      stroke="#7ED957"
      stroke-width="6.875"
    />

    <path
      d="M1656.5 912.5h40.69c22.47 0 40.69 18.216 40.69 40.687v32.063h11.62l-23.25 23.25-23.25-23.25h11.63v-32.063c0-9.63-7.81-17.437-17.44-17.437h-40.69Z"
      fill="#D86DCD"
      stroke="#D86DCD"
      stroke-width="6.875"
    />

    <path
      d="M1736.5 1201.5v40.69c0 22.47-18.22 40.69-40.69 40.69h-32.06v11.62l-23.25-23.25 23.25-23.25v11.62h32.06c9.63 0 17.44-7.8 17.44-17.43v-40.69Z"
      fill="#5AD7FF"
      stroke="#5AD7FF"
      stroke-width="6.875"
    />

    <path
      d="M1414.5 1288.5h-40.69c-22.47 0-40.69-18.22-40.69-40.69v-32.06h-11.62l23.25-23.25 23.25 23.25h-11.63v32.06c0 9.63 7.81 17.44 17.44 17.44h40.69Z"
      fill="#FF9A5C"
      stroke="#FF9A5C"
      stroke-width="6.875"
    />

    <path
      d="M1384.5 1021.14 1447.14 958.5H1682.5v219.36l-62.64 62.64H1384.5ZM1384.5 1021.14h235.36l62.64-62.64M1619.86 1021.14v219.36"
      fill="none"
      stroke="#D0D0D0"
      stroke-width="6.875"
      stroke-linejoin="miter"
      stroke-miterlimit="8"
    />
  </g>
</svg>
